<svg width="10" height="16" viewBox="0 0 10 16" fill="none" xmlns="http://www.w3.org/2000/svg">
<path d="M9.59766 9.9834C9.59766 10.915 9.26074 11.665 8.58691 12.2334C7.91309 12.7959 6.96973 13.1328 5.75684 13.2441V15.0459H4.55273V13.2793C3.12305 13.25 1.86914 12.998 0.791016 12.5234V10.2031C1.30078 10.4551 1.91309 10.6777 2.62793 10.8711C3.34863 11.0645 3.99023 11.1787 4.55273 11.2139V8.48926L3.96387 8.26074C2.80371 7.80371 1.98047 7.30859 1.49414 6.77539C1.01367 6.23633 0.773438 5.57129 0.773438 4.78027C0.773438 3.93066 1.10449 3.2334 1.7666 2.68848C2.43457 2.1377 3.36328 1.80371 4.55273 1.68652V0.341797H5.75684V1.65137C7.09863 1.70996 8.31152 1.97949 9.39551 2.45996L8.56934 4.5166C7.65527 4.1416 6.71777 3.91309 5.75684 3.83105V6.42383C6.89941 6.86328 7.71094 7.24414 8.19141 7.56641C8.67773 7.88867 9.03223 8.24316 9.25488 8.62988C9.4834 9.0166 9.59766 9.46777 9.59766 9.9834ZM6.95215 10.1152C6.95215 9.86914 6.85254 9.66113 6.65332 9.49121C6.4541 9.32129 6.15527 9.14551 5.75684 8.96387V11.1523C6.55371 11.0176 6.95215 10.6719 6.95215 10.1152ZM3.41895 4.78027C3.41895 5.03809 3.50684 5.25195 3.68262 5.42188C3.86426 5.58594 4.1543 5.75586 4.55273 5.93164V3.86621C3.79688 3.97754 3.41895 4.28223 3.41895 4.78027Z" fill="white"/>
</svg>
